<mxfile host="app.diagrams.net" agent="Mozilla/5.0 (Windows NT 10.0; Win64; x64) AppleWebKit/537.36 (KHTML, like Gecko) Chrome/134.0.0.0 Safari/537.36" version="26.1.3">
  <diagram name="Page-1" id="JsCwIz8Kpc4aWjF-00SY">
    <mxGraphModel dx="1687" dy="875" grid="1" gridSize="10" guides="1" tooltips="1" connect="1" arrows="1" fold="1" page="1" pageScale="1" pageWidth="1100" pageHeight="850" math="0" shadow="0">
      <root>
        <mxCell id="0" />
        <mxCell id="1" parent="0" />
        <mxCell id="tt-1icHCetgclaekxsLi-29" value="" style="rounded=1;whiteSpace=wrap;html=1;fillColor=#f5f5f5;fontColor=#333333;strokeColor=#666666;dashed=1;dashPattern=8 8;" vertex="1" parent="1">
          <mxGeometry x="210" y="90" width="280" height="200" as="geometry" />
        </mxCell>
        <mxCell id="2QOALY07qqEds44wvYMm-83" value="" style="rounded=1;whiteSpace=wrap;html=1;fillColor=#f5f5f5;dashed=1;dashPattern=8 8;fontColor=#333333;strokeColor=#666666;" parent="1" vertex="1">
          <mxGeometry x="685" y="140" width="150" height="420" as="geometry" />
        </mxCell>
        <mxCell id="2QOALY07qqEds44wvYMm-85" value="" style="rounded=1;whiteSpace=wrap;html=1;fillColor=#f5f5f5;dashed=1;dashPattern=8 8;fontColor=#333333;strokeColor=#666666;" parent="1" vertex="1">
          <mxGeometry x="870" y="380" width="100" height="190" as="geometry" />
        </mxCell>
        <mxCell id="2QOALY07qqEds44wvYMm-63" value="" style="rounded=1;whiteSpace=wrap;html=1;fillColor=#f5f5f5;dashed=1;dashPattern=8 8;fontColor=#333333;strokeColor=#666666;" parent="1" vertex="1">
          <mxGeometry x="560" y="580" width="400" height="120" as="geometry" />
        </mxCell>
        <mxCell id="2QOALY07qqEds44wvYMm-95" value="&lt;font face=&quot;Times New Roman&quot;&gt;Force characteristics&lt;/font&gt;" style="text;html=1;align=center;verticalAlign=middle;whiteSpace=wrap;rounded=0;" parent="1" vertex="1">
          <mxGeometry x="695" y="670" width="120" height="20" as="geometry" />
        </mxCell>
        <mxCell id="9LaWhNutDbTBSkz7prja-1" value="&lt;b&gt;Crash&lt;/b&gt;" style="rounded=1;whiteSpace=wrap;html=1;fontFamily=Times New Roman;perimeterSpacing=0;strokeWidth=2;" parent="1" vertex="1">
          <mxGeometry x="200" y="380" width="80" height="40" as="geometry" />
        </mxCell>
        <mxCell id="9LaWhNutDbTBSkz7prja-2" value="Roll-over" style="rounded=1;whiteSpace=wrap;html=1;fontFamily=Times New Roman;" parent="1" vertex="1">
          <mxGeometry x="299.99999999999994" y="440" width="80" height="40" as="geometry" />
        </mxCell>
        <mxCell id="9LaWhNutDbTBSkz7prja-3" value="&lt;div&gt;&lt;b&gt;P&lt;/b&gt;itch-over&lt;/div&gt;&lt;div&gt;&lt;b&gt;(P)&lt;/b&gt;&lt;/div&gt;" style="rounded=1;whiteSpace=wrap;html=1;fontFamily=Times New Roman;" parent="1" vertex="1">
          <mxGeometry x="420.04999999999995" y="300" width="80" height="40" as="geometry" />
        </mxCell>
        <mxCell id="9LaWhNutDbTBSkz7prja-4" value="&lt;div&gt;&lt;b&gt;Ext&lt;/b&gt;ernal&lt;/div&gt;&lt;div&gt;&lt;b&gt;(Ext)&lt;/b&gt;&lt;/div&gt;" style="rounded=1;whiteSpace=wrap;html=1;fontFamily=Times New Roman;" parent="1" vertex="1">
          <mxGeometry x="580" y="460" width="80" height="40" as="geometry" />
        </mxCell>
        <mxCell id="9LaWhNutDbTBSkz7prja-6" value="&lt;div&gt;&lt;b&gt;H&lt;/b&gt;igh side&lt;/div&gt;&lt;b&gt;(H)&lt;/b&gt;" style="rounded=1;whiteSpace=wrap;html=1;fontFamily=Times New Roman;" parent="1" vertex="1">
          <mxGeometry x="419.99999999999994" y="400" width="80" height="40" as="geometry" />
        </mxCell>
        <mxCell id="9LaWhNutDbTBSkz7prja-7" value="&lt;div&gt;&lt;b&gt;L&lt;/b&gt;ow side&lt;/div&gt;&lt;b&gt;(L)&lt;/b&gt;" style="rounded=1;whiteSpace=wrap;html=1;fontFamily=Times New Roman;" parent="1" vertex="1">
          <mxGeometry x="419.99999999999994" y="480" width="80" height="40" as="geometry" />
        </mxCell>
        <mxCell id="9LaWhNutDbTBSkz7prja-10" value="" style="endArrow=classic;html=1;rounded=0;entryX=0;entryY=0.5;entryDx=0;entryDy=0;fontFamily=Times New Roman;" parent="1" target="9LaWhNutDbTBSkz7prja-6" edge="1">
          <mxGeometry width="50" height="50" relative="1" as="geometry">
            <mxPoint x="379.99999999999994" y="460" as="sourcePoint" />
            <mxPoint x="399.99999999999994" y="420" as="targetPoint" />
            <Array as="points">
              <mxPoint x="399.99999999999994" y="460" />
              <mxPoint x="399.99999999999994" y="420" />
            </Array>
          </mxGeometry>
        </mxCell>
        <mxCell id="9LaWhNutDbTBSkz7prja-11" value="" style="endArrow=classic;html=1;rounded=0;entryX=0;entryY=0.5;entryDx=0;entryDy=0;exitX=1;exitY=0.5;exitDx=0;exitDy=0;fontFamily=Times New Roman;" parent="1" source="9LaWhNutDbTBSkz7prja-2" target="9LaWhNutDbTBSkz7prja-7" edge="1">
          <mxGeometry width="50" height="50" relative="1" as="geometry">
            <mxPoint x="439.99999999999994" y="410" as="sourcePoint" />
            <mxPoint x="489.99999999999994" y="360" as="targetPoint" />
            <Array as="points">
              <mxPoint x="379.99999999999994" y="460" />
              <mxPoint x="399.99999999999994" y="460" />
              <mxPoint x="399.99999999999994" y="500" />
            </Array>
          </mxGeometry>
        </mxCell>
        <mxCell id="9LaWhNutDbTBSkz7prja-13" value="" style="ellipse;whiteSpace=wrap;html=1;aspect=fixed;fontFamily=Times New Roman;" parent="1" vertex="1">
          <mxGeometry x="530.34" y="350" width="20" height="20" as="geometry" />
        </mxCell>
        <mxCell id="9LaWhNutDbTBSkz7prja-14" value="" style="endArrow=none;html=1;rounded=0;fontFamily=Times New Roman;" parent="1" edge="1">
          <mxGeometry width="50" height="50" relative="1" as="geometry">
            <mxPoint x="499.99999999999994" y="420" as="sourcePoint" />
            <mxPoint x="520" y="420" as="targetPoint" />
          </mxGeometry>
        </mxCell>
        <mxCell id="9LaWhNutDbTBSkz7prja-15" value="" style="endArrow=none;html=1;rounded=0;fontFamily=Times New Roman;" parent="1" edge="1">
          <mxGeometry width="50" height="50" relative="1" as="geometry">
            <mxPoint x="499.99999999999994" y="500" as="sourcePoint" />
            <mxPoint x="520" y="499.76" as="targetPoint" />
          </mxGeometry>
        </mxCell>
        <mxCell id="9LaWhNutDbTBSkz7prja-16" value="" style="endArrow=none;html=1;rounded=0;fontFamily=Times New Roman;" parent="1" edge="1">
          <mxGeometry width="50" height="50" relative="1" as="geometry">
            <mxPoint x="520" y="500" as="sourcePoint" />
            <mxPoint x="520" y="420" as="targetPoint" />
          </mxGeometry>
        </mxCell>
        <mxCell id="9LaWhNutDbTBSkz7prja-30" value="&lt;div&gt;&lt;b&gt;F&lt;/b&gt;ront/&lt;b&gt;R&lt;/b&gt;ear&lt;/div&gt;&lt;div&gt;&lt;b&gt;(F/R)&lt;/b&gt;&lt;/div&gt;" style="rounded=1;whiteSpace=wrap;html=1;fontFamily=Times New Roman;" parent="1" vertex="1">
          <mxGeometry x="880" y="519" width="80" height="40" as="geometry" />
        </mxCell>
        <mxCell id="9LaWhNutDbTBSkz7prja-31" value="&lt;div&gt;&lt;b&gt;Lon&lt;/b&gt;gitudinal/&lt;/div&gt;&lt;div&gt;&lt;b&gt;Lat&lt;/b&gt;eral&lt;/div&gt;&lt;div&gt;&lt;b&gt;(Lon/Lat)&lt;/b&gt;&lt;/div&gt;" style="rounded=1;whiteSpace=wrap;html=1;fontFamily=Times New Roman;" parent="1" vertex="1">
          <mxGeometry x="880" y="408" width="80" height="50" as="geometry" />
        </mxCell>
        <mxCell id="9LaWhNutDbTBSkz7prja-32" value="" style="ellipse;whiteSpace=wrap;html=1;aspect=fixed;fontFamily=Times New Roman;" parent="1" vertex="1">
          <mxGeometry x="840" y="469" width="20" height="20" as="geometry" />
        </mxCell>
        <mxCell id="9LaWhNutDbTBSkz7prja-45" value="Steady/planned cornering" style="rounded=1;whiteSpace=wrap;html=1;fontFamily=Times New Roman;" parent="1" vertex="1">
          <mxGeometry x="80" y="380" width="80" height="40" as="geometry" />
        </mxCell>
        <mxCell id="9LaWhNutDbTBSkz7prja-46" value="&lt;div&gt;Start/stop&lt;/div&gt;&lt;div&gt;Low speed&lt;/div&gt;" style="rounded=1;whiteSpace=wrap;html=1;fontFamily=Times New Roman;" parent="1" vertex="1">
          <mxGeometry x="80" y="440" width="80" height="40" as="geometry" />
        </mxCell>
        <mxCell id="9LaWhNutDbTBSkz7prja-47" value="Straight running" style="rounded=1;whiteSpace=wrap;html=1;fontFamily=Times New Roman;" parent="1" vertex="1">
          <mxGeometry x="80" y="260" width="80" height="40" as="geometry" />
        </mxCell>
        <mxCell id="9LaWhNutDbTBSkz7prja-48" value="Longitudinal acceleration" style="rounded=1;whiteSpace=wrap;html=1;fontFamily=Times New Roman;" parent="1" vertex="1">
          <mxGeometry x="80" y="320" width="80" height="40" as="geometry" />
        </mxCell>
        <mxCell id="9LaWhNutDbTBSkz7prja-49" value="Unplanned turning/ avoidance" style="rounded=1;whiteSpace=wrap;html=1;fontFamily=Times New Roman;" parent="1" vertex="1">
          <mxGeometry x="80" y="500" width="80" height="60" as="geometry" />
        </mxCell>
        <mxCell id="9LaWhNutDbTBSkz7prja-51" value="" style="endArrow=none;html=1;rounded=0;entryX=1;entryY=0.5;entryDx=0;entryDy=0;fontFamily=Times New Roman;exitX=1;exitY=0.5;exitDx=0;exitDy=0;" parent="1" source="9LaWhNutDbTBSkz7prja-49" target="9LaWhNutDbTBSkz7prja-47" edge="1">
          <mxGeometry width="50" height="50" relative="1" as="geometry">
            <mxPoint x="170" y="530" as="sourcePoint" />
            <mxPoint x="170" y="280" as="targetPoint" />
            <Array as="points">
              <mxPoint x="180" y="530" />
              <mxPoint x="180" y="390" />
              <mxPoint x="180" y="280" />
            </Array>
          </mxGeometry>
        </mxCell>
        <mxCell id="9LaWhNutDbTBSkz7prja-52" value="" style="endArrow=none;html=1;rounded=0;exitX=1;exitY=0.5;exitDx=0;exitDy=0;fontFamily=Times New Roman;" parent="1" source="9LaWhNutDbTBSkz7prja-48" edge="1">
          <mxGeometry width="50" height="50" relative="1" as="geometry">
            <mxPoint x="170" y="340" as="sourcePoint" />
            <mxPoint x="180" y="340" as="targetPoint" />
          </mxGeometry>
        </mxCell>
        <mxCell id="9LaWhNutDbTBSkz7prja-54" value="" style="endArrow=none;html=1;rounded=0;exitX=1;exitY=0.5;exitDx=0;exitDy=0;fontFamily=Times New Roman;" parent="1" source="9LaWhNutDbTBSkz7prja-46" edge="1">
          <mxGeometry width="50" height="50" relative="1" as="geometry">
            <mxPoint x="170" y="460" as="sourcePoint" />
            <mxPoint x="180" y="460" as="targetPoint" />
          </mxGeometry>
        </mxCell>
        <mxCell id="9LaWhNutDbTBSkz7prja-55" value="" style="endArrow=classic;html=1;rounded=0;entryX=0;entryY=0.5;entryDx=0;entryDy=0;fontFamily=Times New Roman;exitX=1;exitY=0.5;exitDx=0;exitDy=0;" parent="1" target="9LaWhNutDbTBSkz7prja-1" edge="1" source="9LaWhNutDbTBSkz7prja-45">
          <mxGeometry width="50" height="50" relative="1" as="geometry">
            <mxPoint x="170" y="400" as="sourcePoint" />
            <mxPoint x="350" y="459" as="targetPoint" />
            <Array as="points" />
          </mxGeometry>
        </mxCell>
        <mxCell id="9LaWhNutDbTBSkz7prja-58" value="" style="endArrow=classic;startArrow=classic;html=1;rounded=0;entryX=0.5;entryY=1;entryDx=0;entryDy=0;exitX=0.5;exitY=0;exitDx=0;exitDy=0;dashed=1;" parent="1" source="9LaWhNutDbTBSkz7prja-30" target="9LaWhNutDbTBSkz7prja-31" edge="1">
          <mxGeometry width="50" height="50" relative="1" as="geometry">
            <mxPoint x="890" y="608" as="sourcePoint" />
            <mxPoint x="940" y="558" as="targetPoint" />
            <Array as="points">
              <mxPoint x="920" y="489" />
            </Array>
          </mxGeometry>
        </mxCell>
        <mxCell id="9LaWhNutDbTBSkz7prja-59" value="" style="shape=link;html=1;rounded=0;" parent="1" edge="1">
          <mxGeometry relative="1" as="geometry">
            <mxPoint x="290" y="570" as="sourcePoint" />
            <mxPoint x="530" y="570" as="targetPoint" />
          </mxGeometry>
        </mxCell>
        <mxCell id="9LaWhNutDbTBSkz7prja-60" value="&lt;div align=&quot;right&quot;&gt;&lt;font face=&quot;Times New Roman&quot;&gt;Motion&lt;/font&gt;&lt;/div&gt;" style="resizable=0;html=1;whiteSpace=wrap;align=right;verticalAlign=bottom;" parent="9LaWhNutDbTBSkz7prja-59" connectable="0" vertex="1">
          <mxGeometry x="1" relative="1" as="geometry">
            <mxPoint x="-102" as="offset" />
          </mxGeometry>
        </mxCell>
        <mxCell id="9LaWhNutDbTBSkz7prja-63" value="" style="shape=link;html=1;rounded=0;" parent="1" edge="1">
          <mxGeometry relative="1" as="geometry">
            <mxPoint x="565" y="548" as="sourcePoint" />
            <mxPoint x="675" y="548" as="targetPoint" />
          </mxGeometry>
        </mxCell>
        <mxCell id="9LaWhNutDbTBSkz7prja-67" value="" style="shape=link;html=1;rounded=0;" parent="1" edge="1">
          <mxGeometry relative="1" as="geometry">
            <mxPoint x="70" y="599.86" as="sourcePoint" />
            <mxPoint x="170" y="599.86" as="targetPoint" />
          </mxGeometry>
        </mxCell>
        <mxCell id="9LaWhNutDbTBSkz7prja-68" value="&lt;div align=&quot;right&quot;&gt;&lt;font face=&quot;Times New Roman&quot;&gt;Manoeuvre&lt;/font&gt;&lt;/div&gt;" style="resizable=0;html=1;whiteSpace=wrap;align=right;verticalAlign=bottom;" parent="9LaWhNutDbTBSkz7prja-67" connectable="0" vertex="1">
          <mxGeometry x="1" relative="1" as="geometry">
            <mxPoint x="-20" as="offset" />
          </mxGeometry>
        </mxCell>
        <mxCell id="_q0zrPWm__fStjEEnHe--25" value="" style="endArrow=classic;html=1;rounded=0;entryX=0;entryY=0.5;entryDx=0;entryDy=0;" parent="1" edge="1">
          <mxGeometry width="50" height="50" relative="1" as="geometry">
            <mxPoint x="820" y="479" as="sourcePoint" />
            <mxPoint x="840" y="479" as="targetPoint" />
          </mxGeometry>
        </mxCell>
        <mxCell id="_q0zrPWm__fStjEEnHe--27" value="" style="endArrow=classic;html=1;rounded=0;exitX=0.5;exitY=0;exitDx=0;exitDy=0;entryX=0;entryY=0.5;entryDx=0;entryDy=0;" parent="1" source="9LaWhNutDbTBSkz7prja-32" target="9LaWhNutDbTBSkz7prja-31" edge="1">
          <mxGeometry width="50" height="50" relative="1" as="geometry">
            <mxPoint x="850" y="468" as="sourcePoint" />
            <mxPoint x="870" y="448" as="targetPoint" />
            <Array as="points">
              <mxPoint x="850" y="433" />
              <mxPoint x="860" y="433" />
            </Array>
          </mxGeometry>
        </mxCell>
        <mxCell id="_q0zrPWm__fStjEEnHe--28" value="" style="endArrow=classic;html=1;rounded=0;entryX=0;entryY=0.5;entryDx=0;entryDy=0;exitX=0.5;exitY=1;exitDx=0;exitDy=0;" parent="1" target="9LaWhNutDbTBSkz7prja-30" edge="1">
          <mxGeometry width="50" height="50" relative="1" as="geometry">
            <mxPoint x="850" y="490" as="sourcePoint" />
            <mxPoint x="870" y="539" as="targetPoint" />
            <Array as="points">
              <mxPoint x="850" y="539" />
            </Array>
          </mxGeometry>
        </mxCell>
        <mxCell id="2QOALY07qqEds44wvYMm-1" value="&lt;b&gt;T&lt;/b&gt;yre&lt;div&gt;&lt;b&gt;(T)&lt;/b&gt;&lt;/div&gt;" style="rounded=1;whiteSpace=wrap;html=1;fontFamily=Times New Roman;" parent="1" vertex="1">
          <mxGeometry x="720" y="409" width="80" height="40" as="geometry" />
        </mxCell>
        <mxCell id="2QOALY07qqEds44wvYMm-2" value="&lt;b&gt;A&lt;/b&gt;erodynamic&lt;div&gt;&lt;b&gt;(A)&lt;/b&gt;&lt;/div&gt;" style="rounded=1;whiteSpace=wrap;html=1;fontFamily=Times New Roman;" parent="1" vertex="1">
          <mxGeometry x="720" y="460" width="80" height="40" as="geometry" />
        </mxCell>
        <mxCell id="2QOALY07qqEds44wvYMm-3" value="Bo&lt;b&gt;d&lt;/b&gt;y&lt;div&gt;&lt;b&gt;(D)&lt;/b&gt;&lt;/div&gt;" style="rounded=1;whiteSpace=wrap;html=1;fontFamily=Times New Roman;" parent="1" vertex="1">
          <mxGeometry x="720" y="509" width="80" height="40" as="geometry" />
        </mxCell>
        <mxCell id="2QOALY07qqEds44wvYMm-8" value="" style="endArrow=none;html=1;rounded=0;" parent="1" edge="1">
          <mxGeometry width="50" height="50" relative="1" as="geometry">
            <mxPoint x="690" y="529" as="sourcePoint" />
            <mxPoint x="690" y="429" as="targetPoint" />
          </mxGeometry>
        </mxCell>
        <mxCell id="2QOALY07qqEds44wvYMm-9" value="" style="endArrow=classic;html=1;rounded=0;entryX=0;entryY=0.5;entryDx=0;entryDy=0;" parent="1" target="2QOALY07qqEds44wvYMm-1" edge="1">
          <mxGeometry width="50" height="50" relative="1" as="geometry">
            <mxPoint x="690" y="429" as="sourcePoint" />
            <mxPoint x="850" y="439" as="targetPoint" />
          </mxGeometry>
        </mxCell>
        <mxCell id="2QOALY07qqEds44wvYMm-10" value="" style="endArrow=classic;html=1;rounded=0;entryX=0;entryY=0.5;entryDx=0;entryDy=0;" parent="1" target="2QOALY07qqEds44wvYMm-3" edge="1">
          <mxGeometry width="50" height="50" relative="1" as="geometry">
            <mxPoint x="690" y="529" as="sourcePoint" />
            <mxPoint x="850" y="439" as="targetPoint" />
          </mxGeometry>
        </mxCell>
        <mxCell id="2QOALY07qqEds44wvYMm-11" value="" style="endArrow=classic;html=1;rounded=0;entryX=0;entryY=0.5;entryDx=0;entryDy=0;" parent="1" edge="1">
          <mxGeometry width="50" height="50" relative="1" as="geometry">
            <mxPoint x="690" y="480" as="sourcePoint" />
            <mxPoint x="720" y="480" as="targetPoint" />
          </mxGeometry>
        </mxCell>
        <mxCell id="2QOALY07qqEds44wvYMm-12" value="" style="endArrow=none;html=1;rounded=0;exitX=1;exitY=0.5;exitDx=0;exitDy=0;" parent="1" source="9LaWhNutDbTBSkz7prja-4" edge="1">
          <mxGeometry width="50" height="50" relative="1" as="geometry">
            <mxPoint x="800" y="488" as="sourcePoint" />
            <mxPoint x="690" y="480" as="targetPoint" />
          </mxGeometry>
        </mxCell>
        <mxCell id="2QOALY07qqEds44wvYMm-13" value="&lt;b&gt;B&lt;/b&gt;raking&lt;div&gt;&lt;b&gt;(B)&lt;/b&gt;&lt;/div&gt;" style="rounded=1;whiteSpace=wrap;html=1;fontFamily=Times New Roman;" parent="1" vertex="1">
          <mxGeometry x="720" y="170" width="80" height="40" as="geometry" />
        </mxCell>
        <mxCell id="2QOALY07qqEds44wvYMm-14" value="&lt;b&gt;S&lt;/b&gt;teering&lt;div&gt;&lt;b&gt;(S)&lt;/b&gt;&lt;/div&gt;" style="rounded=1;whiteSpace=wrap;html=1;fontFamily=Times New Roman;" parent="1" vertex="1">
          <mxGeometry x="720" y="220" width="80" height="40" as="geometry" />
        </mxCell>
        <mxCell id="2QOALY07qqEds44wvYMm-15" value="Po&lt;b&gt;w&lt;/b&gt;er&lt;div&gt;&lt;b&gt;(W)&lt;/b&gt;&lt;/div&gt;" style="rounded=1;whiteSpace=wrap;html=1;fontFamily=Times New Roman;" parent="1" vertex="1">
          <mxGeometry x="720" y="270" width="80" height="40" as="geometry" />
        </mxCell>
        <mxCell id="2QOALY07qqEds44wvYMm-17" value="" style="endArrow=classic;html=1;rounded=0;entryX=0;entryY=0.5;entryDx=0;entryDy=0;" parent="1" target="2QOALY07qqEds44wvYMm-13" edge="1">
          <mxGeometry width="50" height="50" relative="1" as="geometry">
            <mxPoint x="690" y="190" as="sourcePoint" />
            <mxPoint x="850" y="199" as="targetPoint" />
          </mxGeometry>
        </mxCell>
        <mxCell id="2QOALY07qqEds44wvYMm-24" value="" style="endArrow=none;html=1;rounded=0;" parent="1" edge="1">
          <mxGeometry width="50" height="50" relative="1" as="geometry">
            <mxPoint x="820" y="529" as="sourcePoint" />
            <mxPoint x="820" y="429" as="targetPoint" />
          </mxGeometry>
        </mxCell>
        <mxCell id="2QOALY07qqEds44wvYMm-26" value="" style="endArrow=none;html=1;rounded=0;exitX=1;exitY=0.5;exitDx=0;exitDy=0;" parent="1" source="2QOALY07qqEds44wvYMm-1" edge="1">
          <mxGeometry width="50" height="50" relative="1" as="geometry">
            <mxPoint x="890" y="479" as="sourcePoint" />
            <mxPoint x="820" y="429" as="targetPoint" />
          </mxGeometry>
        </mxCell>
        <mxCell id="2QOALY07qqEds44wvYMm-27" value="" style="endArrow=none;html=1;rounded=0;exitX=1;exitY=0.5;exitDx=0;exitDy=0;" parent="1" source="2QOALY07qqEds44wvYMm-3" edge="1">
          <mxGeometry width="50" height="50" relative="1" as="geometry">
            <mxPoint x="890" y="479" as="sourcePoint" />
            <mxPoint x="820" y="529" as="targetPoint" />
          </mxGeometry>
        </mxCell>
        <mxCell id="2QOALY07qqEds44wvYMm-28" value="" style="endArrow=none;html=1;rounded=0;exitX=1;exitY=0.5;exitDx=0;exitDy=0;" parent="1" edge="1">
          <mxGeometry width="50" height="50" relative="1" as="geometry">
            <mxPoint x="800" y="479" as="sourcePoint" />
            <mxPoint x="820" y="479" as="targetPoint" />
          </mxGeometry>
        </mxCell>
        <mxCell id="2QOALY07qqEds44wvYMm-31" value="" style="endArrow=none;html=1;rounded=0;exitX=1;exitY=0.5;exitDx=0;exitDy=0;" parent="1" edge="1">
          <mxGeometry width="50" height="50" relative="1" as="geometry">
            <mxPoint x="800" y="188.76" as="sourcePoint" />
            <mxPoint x="820" y="188.76" as="targetPoint" />
          </mxGeometry>
        </mxCell>
        <mxCell id="2QOALY07qqEds44wvYMm-32" value="" style="endArrow=none;html=1;rounded=0;exitX=1;exitY=0.5;exitDx=0;exitDy=0;" parent="1" edge="1">
          <mxGeometry width="50" height="50" relative="1" as="geometry">
            <mxPoint x="800" y="288.96999999999997" as="sourcePoint" />
            <mxPoint x="820" y="288.96999999999997" as="targetPoint" />
          </mxGeometry>
        </mxCell>
        <mxCell id="2QOALY07qqEds44wvYMm-45" value="Step" style="rounded=1;whiteSpace=wrap;html=1;fontFamily=Times New Roman;" parent="1" vertex="1">
          <mxGeometry x="570" y="620" width="80" height="40" as="geometry" />
        </mxCell>
        <mxCell id="2QOALY07qqEds44wvYMm-46" value="Ramp" style="rounded=1;whiteSpace=wrap;html=1;fontFamily=Times New Roman;" parent="1" vertex="1">
          <mxGeometry x="670" y="620" width="80" height="40" as="geometry" />
        </mxCell>
        <mxCell id="2QOALY07qqEds44wvYMm-47" value="Impulse" style="rounded=1;whiteSpace=wrap;html=1;fontFamily=Times New Roman;" parent="1" vertex="1">
          <mxGeometry x="770" y="620" width="80" height="40" as="geometry" />
        </mxCell>
        <mxCell id="2QOALY07qqEds44wvYMm-48" value="Periodic" style="rounded=1;whiteSpace=wrap;html=1;fontFamily=Times New Roman;" parent="1" vertex="1">
          <mxGeometry x="870" y="620" width="80" height="40" as="geometry" />
        </mxCell>
        <mxCell id="2QOALY07qqEds44wvYMm-52" value="" style="edgeStyle=orthogonalEdgeStyle;rounded=0;orthogonalLoop=1;jettySize=auto;html=1;exitX=1;exitY=0.5;exitDx=0;exitDy=0;" parent="1" source="2QOALY07qqEds44wvYMm-50" edge="1">
          <mxGeometry relative="1" as="geometry">
            <mxPoint x="910" y="620" as="targetPoint" />
          </mxGeometry>
        </mxCell>
        <mxCell id="2QOALY07qqEds44wvYMm-50" value="" style="ellipse;whiteSpace=wrap;html=1;aspect=fixed;fontFamily=Times New Roman;" parent="1" vertex="1">
          <mxGeometry x="750" y="590" width="20" height="20" as="geometry" />
        </mxCell>
        <mxCell id="2QOALY07qqEds44wvYMm-53" value="" style="endArrow=classic;html=1;rounded=0;exitX=0;exitY=0.5;exitDx=0;exitDy=0;" parent="1" source="2QOALY07qqEds44wvYMm-50" edge="1">
          <mxGeometry width="50" height="50" relative="1" as="geometry">
            <mxPoint x="779.98" y="551" as="sourcePoint" />
            <mxPoint x="610" y="620" as="targetPoint" />
            <Array as="points">
              <mxPoint x="610" y="600" />
            </Array>
          </mxGeometry>
        </mxCell>
        <mxCell id="2QOALY07qqEds44wvYMm-55" value="" style="endArrow=classic;html=1;rounded=0;" parent="1" edge="1">
          <mxGeometry width="50" height="50" relative="1" as="geometry">
            <mxPoint x="710" y="600" as="sourcePoint" />
            <mxPoint x="710" y="620" as="targetPoint" />
          </mxGeometry>
        </mxCell>
        <mxCell id="2QOALY07qqEds44wvYMm-56" value="" style="endArrow=classic;html=1;rounded=0;" parent="1" edge="1">
          <mxGeometry width="50" height="50" relative="1" as="geometry">
            <mxPoint x="810" y="600" as="sourcePoint" />
            <mxPoint x="810" y="620" as="targetPoint" />
          </mxGeometry>
        </mxCell>
        <mxCell id="2QOALY07qqEds44wvYMm-61" value="" style="endArrow=classic;html=1;rounded=0;entryX=0;entryY=0.5;entryDx=0;entryDy=0;" parent="1" target="2QOALY07qqEds44wvYMm-15" edge="1">
          <mxGeometry width="50" height="50" relative="1" as="geometry">
            <mxPoint x="690" y="290" as="sourcePoint" />
            <mxPoint x="880" y="270" as="targetPoint" />
          </mxGeometry>
        </mxCell>
        <mxCell id="2QOALY07qqEds44wvYMm-62" value="" style="endArrow=none;html=1;rounded=0;" parent="1" edge="1">
          <mxGeometry width="50" height="50" relative="1" as="geometry">
            <mxPoint x="820" y="289" as="sourcePoint" />
            <mxPoint x="820" y="189" as="targetPoint" />
          </mxGeometry>
        </mxCell>
        <mxCell id="2QOALY07qqEds44wvYMm-72" value="" style="edgeStyle=orthogonalEdgeStyle;rounded=0;orthogonalLoop=1;jettySize=auto;html=1;entryX=1;entryY=0.5;entryDx=0;entryDy=0;exitX=1;exitY=0.5;exitDx=0;exitDy=0;" parent="1" source="2QOALY07qqEds44wvYMm-66" edge="1">
          <mxGeometry relative="1" as="geometry">
            <Array as="points">
              <mxPoint x="1020" y="360" />
              <mxPoint x="1020" y="640" />
            </Array>
            <mxPoint x="960" y="640" as="targetPoint" />
          </mxGeometry>
        </mxCell>
        <mxCell id="2QOALY07qqEds44wvYMm-66" value="" style="ellipse;whiteSpace=wrap;html=1;aspect=fixed;fontFamily=Times New Roman;" parent="1" vertex="1">
          <mxGeometry x="990" y="350" width="20" height="20" as="geometry" />
        </mxCell>
        <mxCell id="9LaWhNutDbTBSkz7prja-5" value="&lt;div&gt;&lt;b&gt;Rid&lt;/b&gt;er&lt;/div&gt;&lt;div&gt;&lt;b&gt;(Rid)&lt;/b&gt;&lt;/div&gt;" style="rounded=1;whiteSpace=wrap;html=1;fontFamily=Times New Roman;" parent="1" vertex="1">
          <mxGeometry x="580" y="220" width="80" height="40" as="geometry" />
        </mxCell>
        <mxCell id="2QOALY07qqEds44wvYMm-81" value="" style="endArrow=none;html=1;rounded=0;" parent="1" edge="1">
          <mxGeometry width="50" height="50" relative="1" as="geometry">
            <mxPoint x="690" y="290" as="sourcePoint" />
            <mxPoint x="690" y="190" as="targetPoint" />
          </mxGeometry>
        </mxCell>
        <mxCell id="2QOALY07qqEds44wvYMm-82" value="" style="endArrow=classic;html=1;rounded=0;entryX=0;entryY=0.5;entryDx=0;entryDy=0;exitX=1;exitY=0.5;exitDx=0;exitDy=0;" parent="1" source="9LaWhNutDbTBSkz7prja-5" target="2QOALY07qqEds44wvYMm-14" edge="1">
          <mxGeometry width="50" height="50" relative="1" as="geometry">
            <mxPoint x="690" y="270" as="sourcePoint" />
            <mxPoint x="740" y="220" as="targetPoint" />
          </mxGeometry>
        </mxCell>
        <mxCell id="2QOALY07qqEds44wvYMm-87" value="" style="shape=link;html=1;rounded=0;" parent="1" edge="1">
          <mxGeometry relative="1" as="geometry">
            <mxPoint x="700" y="160" as="sourcePoint" />
            <mxPoint x="820" y="160" as="targetPoint" />
          </mxGeometry>
        </mxCell>
        <mxCell id="2QOALY07qqEds44wvYMm-88" value="&lt;div align=&quot;right&quot;&gt;&lt;font face=&quot;Times New Roman&quot;&gt;Mechanism&lt;/font&gt;&lt;/div&gt;" style="resizable=0;html=1;whiteSpace=wrap;align=right;verticalAlign=bottom;" parent="2QOALY07qqEds44wvYMm-87" connectable="0" vertex="1">
          <mxGeometry x="1" relative="1" as="geometry">
            <mxPoint x="-30" as="offset" />
          </mxGeometry>
        </mxCell>
        <mxCell id="2QOALY07qqEds44wvYMm-89" value="" style="shape=link;html=1;rounded=0;" parent="1" edge="1">
          <mxGeometry relative="1" as="geometry">
            <mxPoint x="880" y="400" as="sourcePoint" />
            <mxPoint x="960" y="400" as="targetPoint" />
          </mxGeometry>
        </mxCell>
        <mxCell id="2QOALY07qqEds44wvYMm-90" value="&lt;div&gt;&lt;font face=&quot;Times New Roman&quot;&gt;Location&lt;/font&gt;&lt;/div&gt;" style="resizable=0;html=1;whiteSpace=wrap;align=center;verticalAlign=bottom;" parent="2QOALY07qqEds44wvYMm-89" connectable="0" vertex="1">
          <mxGeometry x="1" relative="1" as="geometry">
            <mxPoint x="-40" as="offset" />
          </mxGeometry>
        </mxCell>
        <mxCell id="2QOALY07qqEds44wvYMm-91" value="" style="shape=link;html=1;rounded=0;exitX=0.05;exitY=0.917;exitDx=0;exitDy=0;exitPerimeter=0;entryX=0.95;entryY=0.917;entryDx=0;entryDy=0;entryPerimeter=0;" parent="1" source="2QOALY07qqEds44wvYMm-63" target="2QOALY07qqEds44wvYMm-63" edge="1">
          <mxGeometry relative="1" as="geometry">
            <mxPoint x="700" y="690" as="sourcePoint" />
            <mxPoint x="810" y="690" as="targetPoint" />
          </mxGeometry>
        </mxCell>
        <mxCell id="2QOALY07qqEds44wvYMm-93" value="" style="resizable=0;html=1;whiteSpace=wrap;align=right;verticalAlign=bottom;" parent="1" connectable="0" vertex="1">
          <mxGeometry x="790" y="690" as="geometry" />
        </mxCell>
        <mxCell id="Ak3B83W8qD7L2tXzGAow-10" value="" style="edgeStyle=orthogonalEdgeStyle;rounded=0;orthogonalLoop=1;jettySize=auto;html=1;" parent="1" source="Ak3B83W8qD7L2tXzGAow-2" target="Ak3B83W8qD7L2tXzGAow-9" edge="1">
          <mxGeometry relative="1" as="geometry" />
        </mxCell>
        <mxCell id="Ak3B83W8qD7L2tXzGAow-2" value="&lt;b&gt;I&lt;/b&gt;nternal&lt;div&gt;&lt;b&gt;(Int)&lt;/b&gt;&lt;/div&gt;" style="rounded=1;whiteSpace=wrap;html=1;fontFamily=Times New Roman;" parent="1" vertex="1">
          <mxGeometry x="580" y="340" width="80" height="40" as="geometry" />
        </mxCell>
        <mxCell id="Ak3B83W8qD7L2tXzGAow-3" value="&lt;font face=&quot;Times New Roman&quot;&gt;Excitation&lt;/font&gt;" style="text;html=1;align=center;verticalAlign=middle;whiteSpace=wrap;rounded=0;" parent="1" vertex="1">
          <mxGeometry x="570" y="529" width="100" height="20" as="geometry" />
        </mxCell>
        <mxCell id="Ak3B83W8qD7L2tXzGAow-9" value="&lt;b&gt;D&lt;/b&gt;egree &lt;b&gt;o&lt;/b&gt;f &lt;b&gt;F&lt;/b&gt;reedom&amp;nbsp;&lt;div&gt;&lt;b&gt;(DoF)&lt;/b&gt;&lt;/div&gt;" style="rounded=1;whiteSpace=wrap;html=1;fontFamily=Times New Roman;" parent="1" vertex="1">
          <mxGeometry x="720" y="330.5" width="80" height="59" as="geometry" />
        </mxCell>
        <mxCell id="uqP1SCsqGAd-8DMkI84J-18" value="" style="endArrow=classic;html=1;rounded=0;entryX=0.5;entryY=0;entryDx=0;entryDy=0;exitX=1;exitY=0.5;exitDx=0;exitDy=0;" parent="1" source="2QOALY07qqEds44wvYMm-14" target="2QOALY07qqEds44wvYMm-66" edge="1">
          <mxGeometry width="50" height="50" relative="1" as="geometry">
            <mxPoint x="940" y="370" as="sourcePoint" />
            <mxPoint x="990" y="320" as="targetPoint" />
            <Array as="points">
              <mxPoint x="1000" y="240" />
            </Array>
          </mxGeometry>
        </mxCell>
        <mxCell id="uqP1SCsqGAd-8DMkI84J-25" value="" style="endArrow=classic;html=1;rounded=0;entryX=0.5;entryY=1;entryDx=0;entryDy=0;" parent="1" target="2QOALY07qqEds44wvYMm-66" edge="1">
          <mxGeometry width="50" height="50" relative="1" as="geometry">
            <mxPoint x="920" y="490" as="sourcePoint" />
            <mxPoint x="820" y="380" as="targetPoint" />
            <Array as="points">
              <mxPoint x="1000" y="490" />
            </Array>
          </mxGeometry>
        </mxCell>
        <mxCell id="uqP1SCsqGAd-8DMkI84J-32" value="" style="endArrow=classic;html=1;rounded=0;exitX=1;exitY=0.5;exitDx=0;exitDy=0;" parent="1" source="9LaWhNutDbTBSkz7prja-3" edge="1">
          <mxGeometry width="50" height="50" relative="1" as="geometry">
            <mxPoint x="410.34" y="340" as="sourcePoint" />
            <mxPoint x="540.34" y="350" as="targetPoint" />
            <Array as="points">
              <mxPoint x="540.34" y="320" />
            </Array>
          </mxGeometry>
        </mxCell>
        <mxCell id="uqP1SCsqGAd-8DMkI84J-35" value="" style="endArrow=none;html=1;rounded=0;" parent="1" edge="1">
          <mxGeometry width="50" height="50" relative="1" as="geometry">
            <mxPoint x="560" y="480" as="sourcePoint" />
            <mxPoint x="560" y="240" as="targetPoint" />
          </mxGeometry>
        </mxCell>
        <mxCell id="uqP1SCsqGAd-8DMkI84J-36" value="" style="endArrow=classic;html=1;rounded=0;entryX=0;entryY=0.5;entryDx=0;entryDy=0;" parent="1" target="9LaWhNutDbTBSkz7prja-5" edge="1">
          <mxGeometry width="50" height="50" relative="1" as="geometry">
            <mxPoint x="560" y="240" as="sourcePoint" />
            <mxPoint x="480" y="270" as="targetPoint" />
          </mxGeometry>
        </mxCell>
        <mxCell id="uqP1SCsqGAd-8DMkI84J-37" value="" style="endArrow=classic;html=1;rounded=0;" parent="1" edge="1">
          <mxGeometry width="50" height="50" relative="1" as="geometry">
            <mxPoint x="560" y="360" as="sourcePoint" />
            <mxPoint x="580" y="360" as="targetPoint" />
          </mxGeometry>
        </mxCell>
        <mxCell id="uqP1SCsqGAd-8DMkI84J-38" value="" style="endArrow=classic;html=1;rounded=0;entryX=0;entryY=0.5;entryDx=0;entryDy=0;" parent="1" target="9LaWhNutDbTBSkz7prja-4" edge="1">
          <mxGeometry width="50" height="50" relative="1" as="geometry">
            <mxPoint x="560" y="480" as="sourcePoint" />
            <mxPoint x="520" y="440" as="targetPoint" />
          </mxGeometry>
        </mxCell>
        <mxCell id="tt-1icHCetgclaekxsLi-1" value="" style="endArrow=none;html=1;rounded=0;exitX=1;exitY=0.5;exitDx=0;exitDy=0;startFill=0;" edge="1" parent="1" source="9LaWhNutDbTBSkz7prja-13">
          <mxGeometry width="50" height="50" relative="1" as="geometry">
            <mxPoint x="520" y="410" as="sourcePoint" />
            <mxPoint x="560" y="360" as="targetPoint" />
          </mxGeometry>
        </mxCell>
        <mxCell id="tt-1icHCetgclaekxsLi-2" value="" style="endArrow=classic;html=1;rounded=0;entryX=0.5;entryY=1;entryDx=0;entryDy=0;" edge="1" parent="1" target="9LaWhNutDbTBSkz7prja-13">
          <mxGeometry width="50" height="50" relative="1" as="geometry">
            <mxPoint x="520.34" y="460" as="sourcePoint" />
            <mxPoint x="590.34" y="460" as="targetPoint" />
            <Array as="points">
              <mxPoint x="540.34" y="460" />
            </Array>
          </mxGeometry>
        </mxCell>
        <mxCell id="tt-1icHCetgclaekxsLi-7" value="" style="shape=curlyBracket;whiteSpace=wrap;html=1;rounded=1;flipH=1;labelPosition=right;verticalLabelPosition=middle;align=left;verticalAlign=middle;rotation=90;" vertex="1" parent="1">
          <mxGeometry x="400" y="425" width="20" height="220" as="geometry" />
        </mxCell>
        <mxCell id="tt-1icHCetgclaekxsLi-8" value="" style="shape=curlyBracket;whiteSpace=wrap;html=1;rounded=1;flipH=1;labelPosition=right;verticalLabelPosition=middle;align=left;verticalAlign=middle;rotation=90;" vertex="1" parent="1">
          <mxGeometry x="110" y="530" width="20" height="90" as="geometry" />
        </mxCell>
        <mxCell id="tt-1icHCetgclaekxsLi-9" value="Proprioception" style="rounded=1;whiteSpace=wrap;html=1;fontFamily=Times New Roman;" vertex="1" parent="1">
          <mxGeometry x="258.46999999999997" y="240" width="80" height="40" as="geometry" />
        </mxCell>
        <mxCell id="tt-1icHCetgclaekxsLi-10" value="Vestibular" style="rounded=1;whiteSpace=wrap;html=1;fontFamily=Times New Roman;" vertex="1" parent="1">
          <mxGeometry x="258.46999999999997" y="180" width="80" height="40" as="geometry" />
        </mxCell>
        <mxCell id="tt-1icHCetgclaekxsLi-11" value="Visual" style="rounded=1;whiteSpace=wrap;html=1;fontFamily=Times New Roman;" vertex="1" parent="1">
          <mxGeometry x="258.46999999999997" y="120" width="80" height="40" as="geometry" />
        </mxCell>
        <mxCell id="tt-1icHCetgclaekxsLi-12" value="Time" style="rounded=1;whiteSpace=wrap;html=1;fontFamily=Times New Roman;" vertex="1" parent="1">
          <mxGeometry x="378.46999999999997" y="130" width="80" height="40" as="geometry" />
        </mxCell>
        <mxCell id="tt-1icHCetgclaekxsLi-13" value="Force" style="rounded=1;whiteSpace=wrap;html=1;fontFamily=Times New Roman;" vertex="1" parent="1">
          <mxGeometry x="378.46999999999997" y="230" width="80" height="40" as="geometry" />
        </mxCell>
        <mxCell id="tt-1icHCetgclaekxsLi-15" value="" style="edgeStyle=orthogonalEdgeStyle;rounded=0;orthogonalLoop=1;jettySize=auto;html=1;" edge="1" parent="1" source="tt-1icHCetgclaekxsLi-14" target="tt-1icHCetgclaekxsLi-13">
          <mxGeometry relative="1" as="geometry" />
        </mxCell>
        <mxCell id="tt-1icHCetgclaekxsLi-16" value="" style="edgeStyle=orthogonalEdgeStyle;rounded=0;orthogonalLoop=1;jettySize=auto;html=1;" edge="1" parent="1" source="tt-1icHCetgclaekxsLi-14" target="tt-1icHCetgclaekxsLi-12">
          <mxGeometry relative="1" as="geometry" />
        </mxCell>
        <mxCell id="tt-1icHCetgclaekxsLi-14" value="" style="ellipse;whiteSpace=wrap;html=1;aspect=fixed;fontFamily=Times New Roman;" vertex="1" parent="1">
          <mxGeometry x="408.46999999999997" y="190" width="20" height="20" as="geometry" />
        </mxCell>
        <mxCell id="tt-1icHCetgclaekxsLi-18" value="" style="edgeStyle=orthogonalEdgeStyle;rounded=0;orthogonalLoop=1;jettySize=auto;html=1;" edge="1" parent="1" source="tt-1icHCetgclaekxsLi-17" target="tt-1icHCetgclaekxsLi-10">
          <mxGeometry relative="1" as="geometry" />
        </mxCell>
        <mxCell id="tt-1icHCetgclaekxsLi-17" value="" style="ellipse;whiteSpace=wrap;html=1;aspect=fixed;fontFamily=Times New Roman;" vertex="1" parent="1">
          <mxGeometry x="218.82999999999998" y="190" width="20" height="20" as="geometry" />
        </mxCell>
        <mxCell id="tt-1icHCetgclaekxsLi-19" value="" style="endArrow=classic;html=1;rounded=0;entryX=0;entryY=0.5;entryDx=0;entryDy=0;exitX=0.5;exitY=1;exitDx=0;exitDy=0;" edge="1" parent="1" source="tt-1icHCetgclaekxsLi-17" target="tt-1icHCetgclaekxsLi-9">
          <mxGeometry width="50" height="50" relative="1" as="geometry">
            <mxPoint x="348.83" y="210" as="sourcePoint" />
            <mxPoint x="398.83" y="160" as="targetPoint" />
            <Array as="points">
              <mxPoint x="228.82999999999998" y="260" />
            </Array>
          </mxGeometry>
        </mxCell>
        <mxCell id="tt-1icHCetgclaekxsLi-20" value="" style="endArrow=classic;html=1;rounded=0;entryX=0;entryY=0.5;entryDx=0;entryDy=0;exitX=0.5;exitY=0;exitDx=0;exitDy=0;" edge="1" parent="1" source="tt-1icHCetgclaekxsLi-17" target="tt-1icHCetgclaekxsLi-11">
          <mxGeometry width="50" height="50" relative="1" as="geometry">
            <mxPoint x="348.83" y="90" as="sourcePoint" />
            <mxPoint x="398.83" y="40" as="targetPoint" />
            <Array as="points">
              <mxPoint x="228.82999999999998" y="140" />
            </Array>
          </mxGeometry>
        </mxCell>
        <mxCell id="tt-1icHCetgclaekxsLi-21" value="" style="endArrow=classic;html=1;rounded=0;exitX=1;exitY=0.5;exitDx=0;exitDy=0;entryX=0;entryY=0.5;entryDx=0;entryDy=0;" edge="1" parent="1" source="tt-1icHCetgclaekxsLi-10" target="tt-1icHCetgclaekxsLi-14">
          <mxGeometry width="50" height="50" relative="1" as="geometry">
            <mxPoint x="538.83" y="270" as="sourcePoint" />
            <mxPoint x="588.83" y="220" as="targetPoint" />
          </mxGeometry>
        </mxCell>
        <mxCell id="tt-1icHCetgclaekxsLi-22" value="" style="endArrow=none;html=1;rounded=0;" edge="1" parent="1">
          <mxGeometry width="50" height="50" relative="1" as="geometry">
            <mxPoint x="358.83" y="260" as="sourcePoint" />
            <mxPoint x="358.83" y="140" as="targetPoint" />
          </mxGeometry>
        </mxCell>
        <mxCell id="tt-1icHCetgclaekxsLi-23" value="" style="endArrow=none;html=1;rounded=0;exitX=1;exitY=0.5;exitDx=0;exitDy=0;" edge="1" parent="1" source="tt-1icHCetgclaekxsLi-9">
          <mxGeometry width="50" height="50" relative="1" as="geometry">
            <mxPoint x="448.83" y="290" as="sourcePoint" />
            <mxPoint x="358.83" y="260" as="targetPoint" />
          </mxGeometry>
        </mxCell>
        <mxCell id="tt-1icHCetgclaekxsLi-24" value="" style="endArrow=none;html=1;rounded=0;entryX=1;entryY=0.5;entryDx=0;entryDy=0;" edge="1" parent="1" target="tt-1icHCetgclaekxsLi-11">
          <mxGeometry width="50" height="50" relative="1" as="geometry">
            <mxPoint x="358.83" y="140" as="sourcePoint" />
            <mxPoint x="498.83" y="240" as="targetPoint" />
          </mxGeometry>
        </mxCell>
        <mxCell id="tt-1icHCetgclaekxsLi-25" value="" style="endArrow=none;html=1;rounded=0;" edge="1" parent="1">
          <mxGeometry width="50" height="50" relative="1" as="geometry">
            <mxPoint x="480" y="250" as="sourcePoint" />
            <mxPoint x="479" y="150" as="targetPoint" />
          </mxGeometry>
        </mxCell>
        <mxCell id="tt-1icHCetgclaekxsLi-27" value="" style="endArrow=none;html=1;rounded=0;entryX=1;entryY=0.5;entryDx=0;entryDy=0;" edge="1" parent="1" target="tt-1icHCetgclaekxsLi-13">
          <mxGeometry width="50" height="50" relative="1" as="geometry">
            <mxPoint x="480" y="250" as="sourcePoint" />
            <mxPoint x="590" y="230" as="targetPoint" />
          </mxGeometry>
        </mxCell>
        <mxCell id="tt-1icHCetgclaekxsLi-28" value="" style="endArrow=none;html=1;rounded=0;entryX=1;entryY=0.5;entryDx=0;entryDy=0;" edge="1" parent="1" target="tt-1icHCetgclaekxsLi-12">
          <mxGeometry width="50" height="50" relative="1" as="geometry">
            <mxPoint x="480" y="150" as="sourcePoint" />
            <mxPoint x="590" y="230" as="targetPoint" />
          </mxGeometry>
        </mxCell>
        <mxCell id="tt-1icHCetgclaekxsLi-30" value="" style="shape=link;html=1;rounded=0;" edge="1" parent="1">
          <mxGeometry relative="1" as="geometry">
            <mxPoint x="230" y="110" as="sourcePoint" />
            <mxPoint x="480" y="110" as="targetPoint" />
          </mxGeometry>
        </mxCell>
        <mxCell id="tt-1icHCetgclaekxsLi-33" value="" style="endArrow=classic;html=1;rounded=0;entryX=0;entryY=0.5;entryDx=0;entryDy=0;" edge="1" parent="1" target="2QOALY07qqEds44wvYMm-66">
          <mxGeometry width="50" height="50" relative="1" as="geometry">
            <mxPoint x="800" y="360" as="sourcePoint" />
            <mxPoint x="850" y="310" as="targetPoint" />
            <Array as="points">
              <mxPoint x="860" y="360" />
            </Array>
          </mxGeometry>
        </mxCell>
        <mxCell id="tt-1icHCetgclaekxsLi-37" value="" style="endArrow=classic;html=1;rounded=0;entryX=0.5;entryY=0;entryDx=0;entryDy=0;strokeWidth=1;jumpStyle=line;" edge="1" parent="1" target="tt-1icHCetgclaekxsLi-29">
          <mxGeometry relative="1" as="geometry">
            <mxPoint x="860" y="360" as="sourcePoint" />
            <mxPoint x="700" y="350" as="targetPoint" />
            <Array as="points">
              <mxPoint x="860" y="70" />
              <mxPoint x="350" y="70" />
            </Array>
          </mxGeometry>
        </mxCell>
        <mxCell id="tt-1icHCetgclaekxsLi-38" value="&lt;font style=&quot;font-size: 12px;&quot; face=&quot;Times New Roman&quot;&gt;Feedback&lt;/font&gt;" style="edgeLabel;resizable=0;html=1;;align=center;verticalAlign=middle;" connectable="0" vertex="1" parent="tt-1icHCetgclaekxsLi-37">
          <mxGeometry relative="1" as="geometry">
            <mxPoint x="-95" as="offset" />
          </mxGeometry>
        </mxCell>
        <mxCell id="tt-1icHCetgclaekxsLi-40" value="" style="endArrow=classic;html=1;rounded=0;entryX=0.5;entryY=0;entryDx=0;entryDy=0;" edge="1" parent="1" target="9LaWhNutDbTBSkz7prja-5">
          <mxGeometry relative="1" as="geometry">
            <mxPoint x="480" y="200" as="sourcePoint" />
            <mxPoint x="700" y="350" as="targetPoint" />
            <Array as="points">
              <mxPoint x="620" y="200" />
            </Array>
          </mxGeometry>
        </mxCell>
        <mxCell id="tt-1icHCetgclaekxsLi-41" value="&lt;font style=&quot;font-size: 12px;&quot; face=&quot;Times New Roman&quot;&gt;Control&lt;/font&gt;" style="edgeLabel;resizable=0;html=1;;align=center;verticalAlign=middle;" connectable="0" vertex="1" parent="tt-1icHCetgclaekxsLi-40">
          <mxGeometry relative="1" as="geometry" />
        </mxCell>
        <mxCell id="tt-1icHCetgclaekxsLi-44" value="" style="endArrow=classic;html=1;rounded=0;entryX=0;entryY=0.5;entryDx=0;entryDy=0;exitX=1;exitY=0.5;exitDx=0;exitDy=0;" edge="1" parent="1" source="9LaWhNutDbTBSkz7prja-1" target="9LaWhNutDbTBSkz7prja-3">
          <mxGeometry width="50" height="50" relative="1" as="geometry">
            <mxPoint x="450" y="450" as="sourcePoint" />
            <mxPoint x="500" y="400" as="targetPoint" />
            <Array as="points">
              <mxPoint x="340" y="400" />
              <mxPoint x="340" y="320" />
            </Array>
          </mxGeometry>
        </mxCell>
        <mxCell id="tt-1icHCetgclaekxsLi-45" value="" style="endArrow=classic;html=1;rounded=0;entryX=0.5;entryY=0;entryDx=0;entryDy=0;" edge="1" parent="1" target="9LaWhNutDbTBSkz7prja-2">
          <mxGeometry width="50" height="50" relative="1" as="geometry">
            <mxPoint x="340" y="400" as="sourcePoint" />
            <mxPoint x="500" y="400" as="targetPoint" />
          </mxGeometry>
        </mxCell>
        <mxCell id="tt-1icHCetgclaekxsLi-46" value="" style="shape=curlyBracket;whiteSpace=wrap;html=1;rounded=1;flipH=1;labelPosition=right;verticalLabelPosition=middle;align=left;verticalAlign=middle;rotation=90;" vertex="1" parent="1">
          <mxGeometry x="610" y="469" width="20" height="90" as="geometry" />
        </mxCell>
        <mxCell id="tt-1icHCetgclaekxsLi-48" value="&lt;font face=&quot;Times New Roman&quot;&gt;Rider factors&lt;/font&gt;" style="text;html=1;align=center;verticalAlign=middle;whiteSpace=wrap;rounded=0;" vertex="1" parent="1">
          <mxGeometry x="290" y="90" width="120" height="20" as="geometry" />
        </mxCell>
      </root>
    </mxGraphModel>
  </diagram>
</mxfile>
